 <svg class="video__iframe-icon" xmlns="http://www.w3.org/2000/svg" viewBox="0,0,256,256"
    style="fill:#000000;">
    <g stroke-width="1" stroke-linecap="butt" stroke-linejoin="miter" stroke-miterlimit="10">
        <g transform="scale(3.2,3.2)">
            <path d="M75.67,57.783c-0.758,3.92 -3.98,6.907 -7.96,7.467c-6.254,0.933 -16.219,2 -27.97,2c-11.561,0 -21.586,-1.067 -28.03,-2c-3.98,-0.56 -7.202,-3.547 -7.96,-7.467c-0.758,-4.293 -1.351,-9.89 -1.351,-17.73c0,-7.84 0.718,-13.437 1.476,-17.73c0.758,-3.92 3.98,-6.907 7.96,-7.467c6.254,-0.933 16.28,-2.107 28.03,-2.107c11.75,0 21.526,1.173 27.97,2.107c3.98,0.56 7.202,3.547 7.96,7.467c0.758,4.293 1.746,9.89 1.746,17.73c-0.19,7.84 -1.113,13.437 -1.871,17.73z"
             fill="#6F7575B3"></path>
             <path d="M39.905,13c11.72,0 21.851,1.111 28.29,2.044c3.584,0.504 6.444,3.183 7.115,6.65c0.725,4.11 1.69,10.479 1.69,18.282c-0.213,8.826 -1.151,15.273 -1.688,18.314c-0.674,3.483 -3.534,6.162 -7.126,6.668c-4.114,0.614 -15.108,2.042 -28.281,2.042c-12.338,0 -23.018,-1.28 -28.29,-2.044c-3.584,-0.504 -6.444,-3.183 -7.115,-6.65c-0.684,-3.878 -1.5,-10.201 -1.5,-18.306c0,-8.105 0.816,-14.428 1.498,-18.29c0.674,-3.483 3.534,-6.162 7.126,-6.668c4.115,-0.614 15.108,-2.042 28.281,-2.042M39.905,12c-11.751,0 -22.175,1.12 -28.429,2.053c-3.98,0.56 -7.202,3.547 -7.96,7.467c-0.758,4.293 -1.516,10.64 -1.516,18.48c0,7.84 0.758,14.187 1.516,18.48c0.758,3.92 3.98,6.907 7.96,7.467c6.444,0.933 16.868,2.053 28.429,2.053c11.751,0 22.175,-1.12 28.429,-2.053c3.98,-0.56 7.202,-3.547 7.96,-7.467c0.758,-4.293 1.516,-10.64 1.706,-18.48c0,-7.84 -0.948,-14.187 -1.706,-18.48c-0.758,-3.92 -3.98,-6.907 -7.96,-7.467c-6.444,-0.933 -16.678,-2.053 -28.429,-2.053z"
             fill="#6F7575B3"></path>
            <path d="M32,53v-26l24,13z" fill="#E8ECEDA1"></path>
         </g>
      </g>
</svg>